# xmcd CD database file
#
# Track frame offsets:
#	150
#	15472
#	32837
#	51015
#	67010
#	106992
#	119587
#	132760
#	151935
#	169232
#
# Disc length: 2382 seconds
#
# Revision: 0
# Processed by: cddbd v1.4PL0 Copyright (c) Steve Scherf et al.
# Submitted via: CDex 1.50
#
DISCID=81094c0a
DTITLE=Louis Armstrong - The Legendary Louis Armstrong
DYEAR=2002
DGENRE=Jazz
TTITLE0=Mack the Knife
TTITLE1=Indiana
TTITLE2=Ain't Misbehavin'
TTITLE3=Six Foot Four
TTITLE4=St. Louis Blues
TTITLE5=Tiger Rag
TTITLE6=Honeysuckle Rose
TTITLE7=All of Me
TTITLE8=Back O' Town Blues
TTITLE9=When The Red, Red Robin Comes Bob, Bob, Bobbin' Along
EXTD=YEAR: 2002
EXTT0=
EXTT1=
EXTT2=
EXTT3=
EXTT4=
EXTT5=
EXTT6=
EXTT7=
EXTT8=
EXTT9=
PLAYORDER=
